<?xml version="1.0" encoding="UTF-8" standalone="no"?>
<svg width="501px" height="476px" viewBox="0 0 501 476" version="1.1" xmlns="http://www.w3.org/2000/svg" xmlns:xlink="http://www.w3.org/1999/xlink" xmlns:sketch="http://www.bohemiancoding.com/sketch/ns">
    <!-- Generator: Sketch 3.3.3 (12072) - http://www.bohemiancoding.com/sketch -->
    <title>placeholder-image</title>
    <desc>Created with Sketch.</desc>
    <defs></defs>
    <g id="Page-1" stroke="none" stroke-width="1" fill="none" fill-rule="evenodd" sketch:type="MSPage">
        <g id="placeholder-image" sketch:type="MSLayerGroup" fill="#000000">
            <path d="M475.925926,130.407407 L456.481481,128.555556 L454.62963,128.555556 L454.62963,128.555556 C450,127.62963 445.37037,123.925926 444.444444,119.296296 L444.444444,117.444444 L444.444444,117.444444 L423.148148,22.0740741 C419.444444,7.25925926 405.555556,-2 390.740741,1.7037037 L21.2962963,83.1851852 C6.48148148,86.8888889 -2.77777778,100.777778 0.925925926,115.592593 L45.3703704,315.592593 L45.3703704,315.592593 L45.3703704,316.518519 L45.3703704,318.37037 L45.3703704,319.296296 L45.3703704,320.222222 L45.3703704,320.222222 L36.1111111,400.777778 C34.2592593,415.592593 45.3703704,429.481481 60.1851852,431.333333 L436.111111,475.777778 C450.925926,477.62963 464.814815,466.518519 466.666667,451.703704 L480.555556,332.259259 L485.185185,295.222222 L500.925926,160.037037 C501.851852,146.148148 490.740741,132.259259 475.925926,130.407407 L475.925926,130.407407 Z M193.518519,85.037037 L195.37037,85.037037 L377.777778,44.2962963 C384.259259,42.4444444 390.740741,47.0740741 392.592593,53.5555556 C392.592593,53.5555556 392.592593,53.5555556 392.592593,54.4814815 C392.592593,54.4814815 392.592593,54.4814815 392.592593,55.4074074 L405.555556,114.666667 L405.555556,114.666667 C405.555556,114.666667 405.555556,114.666667 405.555556,115.592593 L405.555556,116.518519 C405.555556,120.222222 402.777778,123 399.074074,123 L399.074074,123 L397.222222,123 L365.740741,119.296296 L312.962963,112.814815 L194.444444,98.9259259 L193.518519,98.9259259 L193.518519,98.9259259 C190.740741,98 188.888889,96.1481481 188.888889,92.4444444 C188.888889,88.7407407 190.740741,85.962963 193.518519,85.037037 L193.518519,85.037037 Z M67.5925926,122.074074 L62.037037,169.296296 L62.037037,169.296296 L62.037037,171.148148 L62.037037,171.148148 C61.1111111,173.925926 59.2592593,175.777778 56.4814815,175.777778 C53.7037037,175.777778 51.8518519,173.925926 50.9259259,172.074074 C50.9259259,171.148148 50,170.222222 50,170.222222 L41.6666667,132.259259 C41.6666667,132.259259 41.6666667,132.259259 41.6666667,131.333333 C41.6666667,131.333333 41.6666667,131.333333 41.6666667,130.407407 C40.7407407,123.925926 44.4444444,117.444444 50.9259259,116.518519 L59.2592593,114.666667 L59.2592593,114.666667 C60.1851852,114.666667 60.1851852,113.740741 61.1111111,113.740741 L61.1111111,113.740741 C64.8148148,113.740741 66.6666667,116.518519 67.5925926,119.296296 L67.5925926,119.296296 C68.5185185,121.148148 68.5185185,122.074074 67.5925926,122.074074 L67.5925926,122.074074 Z M460.185185,181.333333 C459.259259,181.333333 459.259259,181.333333 460.185185,181.333333 L460.185185,182.259259 L459.259259,185.962963 L445.37037,299.851852 L439.814815,346.148148 L430.555556,425.777778 C430.555556,425.777778 430.555556,425.777778 430.555556,426.703704 C430.555556,426.703704 430.555556,426.703704 430.555556,427.62963 C429.62963,434.111111 424.074074,437.814815 417.592593,437.814815 L416.666667,437.814815 L415.740741,437.814815 L163.888889,408.185185 L86.1111111,398.925926 L85.1851852,398.925926 L84.2592593,398.925926 C77.7777778,398 74.0740741,392.444444 74.0740741,385.962963 C74.0740741,385.962963 74.0740741,385.962963 74.0740741,385.037037 C74.0740741,385.037037 74.0740741,385.037037 74.0740741,384.111111 L82.4074074,316.518519 L103.703704,139.666667 C103.703704,139.666667 103.703704,139.666667 103.703704,138.740741 C103.703704,138.740741 103.703704,138.740741 103.703704,137.814815 C104.62963,131.333333 111.111111,126.703704 117.592593,127.62963 L416.666667,162.814815 L449.074074,166.518519 C451.851852,166.518519 454.62963,168.37037 456.481481,169.296296 C458.333333,173.925926 460.185185,177.62963 460.185185,181.333333 L460.185185,181.333333 Z" id="cards" sketch:type="MSShapeGroup"></path>
            <path d="M390.740741,200.777778 C375,198.925926 361.111111,210.037037 359.259259,224.851852 C359.259259,228.555556 359.259259,232.259259 360.185185,235.037037 C362.962963,246.148148 372.222222,254.481481 384.259259,255.407407 L387.037037,255.407407 C400.925926,255.407407 413.888889,245.222222 414.814815,230.407407 C416.666667,216.518519 405.555556,202.62963 390.740741,200.777778 L390.740741,200.777778 Z" id="sun" sketch:type="MSShapeGroup"></path>
            <path d="M389.814815,374.851852 L380.555556,360.037037 L359.259259,327.62963 L333.333333,286.888889 L330.555556,282.259259 C328.703704,279.481481 325,276.703704 321.296296,276.703704 C317.592593,276.703704 313.888889,277.62963 311.111111,280.407407 L300.925926,290.592593 C300.925926,291.518519 300,291.518519 299.074074,291.518519 C297.222222,292.444444 295.37037,293.37037 293.518519,294.296296 L289.814815,294.296296 C286.111111,294.296296 283.333333,292.444444 281.481481,289.666667 C280.555556,288.740741 280.555556,287.814815 279.62963,286.888889 L250,241.518519 C247.222222,237.814815 242.592593,234.111111 237.962963,234.111111 C232.407407,233.185185 227.777778,235.037037 224.074074,238.740741 L127.777778,330.407407 L119.444444,337.814815 L117.592593,339.666667 C116.666667,341.518519 115.740741,343.37037 114.814815,345.222222 C113.888889,351.703704 118.518519,357.259259 125,357.259259 L125,357.259259 L150.925926,360.037037 L159.259259,360.962963 L161.111111,360.962963 L187.037037,363.740741 L235.185185,369.296296 L254.62963,372.074074 L261.111111,373 L262.962963,373 L298.148148,376.703704 L318.518519,379.481481 L354.62963,384.111111 L356.481481,384.111111 L368.518519,385.962963 L382.407407,387.814815 C387.037037,388.740741 391.666667,385.037037 391.666667,380.407407 C391.666667,378.555556 391.666667,376.703704 390.740741,375.777778 L389.814815,374.851852 L389.814815,374.851852 Z" id="mountain" sketch:type="MSShapeGroup"></path>
        </g>
    </g>
</svg>